# xmcd
#
# Track frame offsets:
# 151
# 15891
# 33982
# 44787
# 54973
# 65713
# 82302
# 92610
# 102334
# 123032
#
# Disc length: 1967 seconds
#
#
# Revision: 0
# Processed by: cddbd v1.5.1PL2 Copyright (c) Steve Scherf et al.
# Submitted via: Nero 7, 0, 5, 4 
#
DISCID=7c07ad0a
DTITLE=Hermann Lammers Meyer - Zeitlos
DYEAR=1900
DGENRE=country
TTITLE0=Lied für Eva
TTITLE1=Ich bin auf Diät
TTITLE2=Hey, hey Trucker Lady
TTITLE3=Geh nach Haus
TTITLE4=Ich weiß etwas, was keiner weiß
TTITLE5=Marie, oh Marie (plattdeutsch)
TTITLE6=Der Geburtstag
TTITLE7=Der Sänger
TTITLE8=Liebe Mama
TTITLE9=Ganz und gar
EXTD=
EXTT0=
EXTT1=
EXTT2=
EXTT3=
EXTT4=
EXTT5=
EXTT6=
EXTT7=
EXTT8=
EXTT9=
PLAYORDER=
